<svg version="1.2" xmlns="http://www.w3.org/2000/svg" viewBox="0 0 42 42" width="42" height="42">
	<title>icon-design-svg</title>
	<defs>
		<linearGradient id="g1" x1="3.3" y1="1" x2="37.8" y2="39.1" gradientUnits="userSpaceOnUse">
			<stop offset=".3" stop-color="#3c3cc3"/>
			<stop offset="1" stop-color="#3c3cc3"/>
		</linearGradient>
		<linearGradient id="g2" x1="29.6" y1="29.2" x2="36.2" y2="36.4" gradientUnits="userSpaceOnUse">
			<stop offset=".3" stop-color="#ffdb6e"/>
			<stop offset="1" stop-color="#ffbc5e"/>
		</linearGradient>
		<linearGradient id="g3" x1="29.6" y1="29.2" x2="36.2" y2="36.4" gradientUnits="userSpaceOnUse">
			<stop offset=".3" stop-color="#ffdb6e"/>
			<stop offset="1" stop-color="#ffbc5e"/>
		</linearGradient>
		<linearGradient id="g4" x1="3.3" y1="1" x2="37.8" y2="39.1" gradientUnits="userSpaceOnUse">
			<stop offset=".3" stop-color="#ffdb6e"/>
			<stop offset="1" stop-color="#ffbc5e"/>
		</linearGradient>
		<linearGradient id="g5" x1="3.3" y1="1" x2="37.8" y2="39.1" gradientUnits="userSpaceOnUse">
			<stop offset=".3" stop-color="#ffdb6e"/>
			<stop offset="1" stop-color="#ffbc5e"/>
		</linearGradient>
	</defs>
	<style>
		.s0 { opacity: .1;fill: url(#g1) } 
		.s1 { fill: url(#g2);stroke: url(#g3);stroke-width: .4 } 
		.s2 { fill: url(#g4);stroke: url(#g5);stroke-width: .4 } 
	</style>
	<path id="Layer" fill-rule="evenodd" class="s0" d="m41 20.4v20c0 0.3-0.3 0.6-0.6 0.6h-20c-0.2 0-0.4-0.1-0.5-0.4-0.1-0.2-0.1-0.4 0.1-0.6l3.4-3.4h-18c-1.1 0-2.2-0.4-3.1-1.3-0.7-0.7-1.2-1.7-1.3-2.8q0-0.1 0-0.1v-25.1c0-2.5 2.1-4.6 4.6-4.6 0.3 0 0.6 0.3 0.6 0.6v5.8h18.2l4.1-4.1 1.9-1.9 1.6-1.6c0.3-0.3 0.8-0.5 1.3-0.5 0.4 0 0.9 0.2 1.2 0.5l1.9 1.9c0.3 0.3 0.5 0.7 0.5 1.2 0 0.5-0.2 1-0.5 1.3l-1.6 1.6-1.7 1.6h4.6c0.3 0 0.5 0.3 0.5 0.6v12l1.8-1.8c0.2-0.1 0.4-0.2 0.6-0.1 0.3 0.1 0.4 0.3 0.4 0.6zm-9.3-16.9l2.7 2.7 1.1-1.1c0.3-0.3 0.3-0.7 0-0.9l-1.8-1.8c-0.2-0.3-0.6-0.3-0.9 0zm-1.9 1.9l2.7 2.7 1.1-1.1-2.7-2.7zm-13.6 14.1l-0.6 1.7 1.2 1.1 1.6-0.6zm19.7 10.6l-5.7 5.7c0 0.1 0 0.2 0.1 0.2h5.7v-5.8c0-0.1-0.1-0.1-0.1-0.1zm-19.9-11.6l3.5 3.5 13-13-3.5-3.5z"/>
	<path id="Layer" fill-rule="evenodd" class="s1" d="m36.8 29.8v6.4c0 0.4-0.3 0.6-0.6 0.6h-6.4c-0.3 0-0.5-0.1-0.6-0.3-0.1-0.3 0-0.5 0.1-0.7l6.5-6.4c0.1-0.2 0.4-0.2 0.6-0.1 0.2 0 0.4 0.3 0.4 0.5zm-1.2 5.8v-4.4l-4.4 4.4z"/>
	<path id="Layer" fill-rule="evenodd" class="s2" d="m41 20.4v20c0 0.3-0.3 0.6-0.6 0.6h-20c-0.2 0-0.4-0.1-0.5-0.4-0.1-0.2-0.1-0.4 0.1-0.6l3.4-3.4h-18c-1.1 0-2.2-0.4-3.1-1.3-0.7-0.7-1.2-1.7-1.3-2.8q0-0.1 0-0.1v-25.1c0-2.5 2.1-4.6 4.6-4.6 0.3 0 0.6 0.3 0.6 0.6v5.8h18.2l4.1-4.1 1.9-1.9 1.6-1.6c0.3-0.3 0.8-0.5 1.3-0.5 0.4 0 0.9 0.2 1.2 0.5l1.9 1.9c0.3 0.3 0.5 0.7 0.5 1.2 0 0.5-0.2 1-0.5 1.3l-1.6 1.6q0 0 0 0l-1.7 1.6h4.6c0.3 0 0.5 0.3 0.5 0.6v12l1.8-1.8c0.2-0.1 0.4-0.2 0.6-0.1 0.3 0.1 0.4 0.3 0.4 0.6zm-9.3-16.9l2.7 2.7 1.1-1.1c0.3-0.3 0.3-0.7 0-0.9l-1.8-1.8c-0.2-0.3-0.6-0.3-0.9 0zm8.2 18.2l-10.3 10.4q-0.1 0-0.1 0-0.2 0.1-0.4 0.1-0.2 0-0.3-0.1 0 0-0.1 0c-0.2-0.3-0.2-0.6 0-0.9l8.4-8.4v-12.6h-5.1l-12.1 12.2q0 0 0 0 0 0 0 0 0 0-0.1 0 0 0 0 0 0 0.1 0 0.1 0 0 0 0 0 0-0.1 0 0 0 0 0l-3.6 1.3h11.7c0.3 0 0.6 0.2 0.6 0.5 0 0.4-0.3 0.6-0.6 0.6h-16.2c-0.4 0-0.6-0.2-0.6-0.6 0-0.3 0.2-0.5 0.6-0.5h1.9q0-0.1 0-0.1l0.8-2.2 1.2-3.3q0 0 0 0 0 0 0 0 0-0.1 0-0.1 0 0 0 0 0 0 0 0 0 0 0-0.1 0 0 0.1 0 0 0 0 0l2.7-2.8c0.3-0.2 0.6-0.2 0.9 0 0.2 0.3 0.2 0.6 0 0.9l-2.4 2.3 2.7 2.7 11.9-11.9q0 0 0 0l0.3-0.3-2.7-2.7-3.8 3.9q0 0 0 0l-4.3 4.2c-0.2 0.3-0.6 0.3-0.8 0-0.3-0.2-0.3-0.6 0-0.8l3.2-3.3h-17v11.4c0 0.3-0.3 0.6-0.6 0.6-0.3 0-0.6-0.3-0.6-0.6v-17.7c-1.6 0.2-2.9 1.7-2.9 3.4v21.9q0.1-0.1 0.3-0.2c0.7-0.7 1.6-1.2 2.6-1.3v-3.7c0-0.4 0.3-0.6 0.6-0.6 0.3 0 0.6 0.2 0.6 0.6v4.2c0 0.4-0.3 0.6-0.6 0.6q-0.1 0-0.2 0 0 0 0 0-0.1 0-0.2 0.1 0 0 0 0-0.1 0-0.1 0-0.1 0-0.1 0 0 0-0.1 0 0 0 0 0c-1.1 0.2-2 0.9-2.4 1.9q0 0 0 0-0.1 0.1-0.1 0.1 0 0.1 0 0.1 0 0 0 0.1-0.1 0-0.1 0 0 0.1 0 0.1 0 0.1 0 0.1 0 0.1 0 0.1-0.1 0-0.1 0.1 0 0 0 0 0 0.1 0 0.2 0 0 0 0 0 0.1 0 0.1 0 0 0 0-0.1 0.2-0.1 0.4c0.1 1.8 1.5 3.2 3.3 3.2h19.1l2.4-2.4c0.2-0.2 0.5-0.3 0.8-0.1q0 0 0 0.1c0.3 0.2 0.3 0.6 0 0.8l-5.9 6h18v-2.9h-1.1c-0.3 0-0.6-0.2-0.6-0.5 0-0.4 0.3-0.6 0.6-0.6h1.1v-1.8h-1.1c-0.3 0-0.6-0.3-0.6-0.6 0-0.3 0.3-0.6 0.6-0.6h1.1v-1.8h-1.1c-0.3 0-0.6-0.2-0.6-0.5 0-0.4 0.3-0.6 0.6-0.6h1.1v-1.8h-1.1c-0.3 0-0.6-0.3-0.6-0.6 0-0.3 0.3-0.6 0.6-0.6h1.1zm-10.1-16.3l2.7 2.7 1.1-1.1-2.7-2.7zm-13.6 14.1l-0.6 1.7 1.2 1.1 1.6-0.6z"/>
</svg>